<svg width="952" height="630" viewBox="0 0 952 630" fill="none" xmlns="http://www.w3.org/2000/svg">
<path d="M230.86 236.25L298.293 51.975C303.876 36.7803 314.018 23.6506 327.353 14.3568C340.688 5.06292 356.573 0.052039 372.867 0H476V78.75H372.867L314.953 236.25H505.75L520.03 196.875H476V118.125H674.333V196.875H604.917L532.723 393.75H559.3C576.753 305.944 650.93 240.975 743.75 236.644C854.817 231.131 952 322.875 952 433.125C952 543.375 864.733 630 753.667 630C656.087 630 577.15 563.456 559.3 472.5H392.7C375.247 560.306 301.07 625.275 208.25 629.606C97.1833 634.725 0 543.375 0 432.731C0 322.481 87.2667 235.856 198.333 235.856H230.86V236.25ZM641.807 472.5C657.673 518.569 700.91 551.25 753.667 551.25C820.307 551.25 872.667 499.275 872.667 433.125C872.667 366.975 820.307 315 753.667 315C700.91 315 657.673 347.681 641.807 393.75H753.667V472.5H641.807ZM392.7 393.75H448.233L477.19 315H357C374.453 337.837 387.147 364.219 392.7 393.75ZM198.333 551.25C264.973 551.25 317.333 499.275 317.333 433.125C317.333 396.506 301.07 365.006 275.683 343.35L237.603 447.3L163.03 420.525L201.507 315.394C200.317 315.394 199.127 315 197.937 315C131.297 315 78.9366 366.975 78.9366 433.125C78.9366 499.275 131.693 551.25 198.333 551.25Z" fill="#E33A3A" fill-opacity="0.05"/>
</svg>
