<svg width="129" height="128" viewBox="0 0 129 128" fill="none" xmlns="http://www.w3.org/2000/svg">
<g clip-path="url(#clip0_153_555)">
<path d="M64.3329 128C81.4278 128 97.4992 121.342 109.588 109.255C121.675 97.1664 128.333 81.0948 128.333 63.9999C128.333 46.9052 121.675 30.8336 109.588 18.7454C97.4994 6.65724 81.4278 0 64.3329 0C29.0431 0 0.333008 28.7101 0.333008 63.9999C0.333008 81.0948 6.99025 97.1664 19.0784 109.255C31.1666 121.342 47.2382 128 64.3329 128Z" fill="black"/>
<path d="M2.54736 63.9999C2.54736 47.4968 8.97428 31.9811 20.6442 20.3112C32.3141 8.64105 47.8296 2.21439 64.3329 2.21439C80.8362 2.21439 96.3519 8.64105 108.022 20.3112C119.691 31.9811 126.118 47.4966 126.118 63.9999C126.118 98.0687 98.4015 125.786 64.3329 125.786C47.8296 125.786 32.3141 119.359 20.6442 107.689C8.97428 96.0187 2.54736 80.5032 2.54736 63.9999Z" fill="white"/>
<path d="M64.3329 4.76074C31.6164 4.76074 5.09375 31.2834 5.09375 63.9999C5.09375 96.7163 31.6164 123.239 64.3329 123.239C97.0493 123.239 123.572 96.7163 123.572 63.9999C123.572 31.2834 97.0493 4.76074 64.3329 4.76074Z" fill="black"/>
<path d="M64.3327 101.84C43.4345 101.84 26.4927 84.8983 26.4927 63.9999C26.4927 43.1017 43.4345 26.1599 64.3327 26.1599C85.2308 26.1599 102.173 43.1017 102.173 63.9999C102.173 84.8983 85.2311 101.84 64.3327 101.84Z" fill="white"/>
<path d="M28.9272 63.9999H64.3328V28.5943C44.7791 28.5943 28.9272 44.4464 28.9272 63.9999ZM64.3328 63.9999V99.4057C83.8865 99.4057 99.7384 83.5538 99.7384 63.9999H64.3328Z" fill="black"/>
<path d="M36.5249 27.8961C35.2706 26.677 33.3317 26.3095 31.5115 27.438C31.8591 26.537 31.7171 25.6175 31.5325 25.1102C30.7484 23.6802 30.4746 23.5013 29.8284 22.959C27.7362 21.2034 25.5344 22.7022 23.9596 24.5789L16.3511 33.6462L28.3116 43.6825L36.3354 34.1204C38.1687 31.9356 38.4522 29.7695 36.5249 27.8961ZM66.3147 23.5875L70.4222 12.7003V23.5875H73.544V7.995H68.8536L64.5874 19.159H64.6316L60.3653 7.995H55.6752V23.5875H58.7967V12.7003L62.9045 23.5875H66.3147ZM108.286 30.0745L102.409 38.3956L111.52 34.0699L113.933 37.0492L99.5914 44.0012L96.76 40.4765L102.401 32.2283L102.368 32.187L93.1267 35.9897L90.2676 32.4874L100.05 19.9047L102.462 22.884L96.3366 30.8972L105.698 26.8783L108.286 30.0745Z" fill="white"/>
<path d="M25.6222 26.8231C26.1517 26.192 27.3482 26.2179 28.1178 26.8634C28.9638 27.5734 28.9659 28.5799 28.3976 29.2567L23.8793 34.6414L21.0522 32.2692L25.6222 26.8231ZM33.6614 33.1753L28.8976 38.8525L25.9103 36.3459L30.7127 30.6225C31.255 29.9762 32.4641 29.788 33.2796 30.4725C34.2027 31.2467 34.2941 32.4214 33.6614 33.1753Z" fill="black"/>
</g>
<defs>
<clipPath id="clip0_153_555">
<rect width="128" height="128" fill="white" transform="translate(0.333008)"/>
</clipPath>
</defs>
</svg>
